<?xml version="1.0" encoding="UTF-8"?>
<svg width="24px" height="24px" viewBox="0 0 24 24" version="1.1" xmlns="http://www.w3.org/2000/svg" xmlns:xlink="http://www.w3.org/1999/xlink">
    <!-- Generator: sketchtool 53.2 (72643) - https://sketchapp.com -->
    <title>E336302D-E4F6-4050-A453-EAFF5EA1DE37</title>
    <desc>Created with sketchtool.</desc>
    <defs>
        <path d="M14.6421356,14.6421356 C16.9852814,12.2989899 16.9852814,8.5 14.6421356,6.15685425 C12.2989899,3.8137085 8.5,3.8137085 6.15685425,6.15685425 C3.8137085,8.5 3.8137085,12.2989899 6.15685425,14.6421356 C8.5,16.9852814 12.2989899,16.9852814 14.6421356,14.6421356 Z M15.4046778,16.6412218 C12.2633522,19.1665714 7.65790535,18.9716139 4.74264069,16.0563492 C1.61844635,12.9321549 1.61844635,7.86683502 4.74264069,4.74264069 C7.86683502,1.61844635 12.9321549,1.61844635 16.0563492,4.74264069 C18.9103882,7.59667966 19.1571826,12.0706527 16.7967326,15.2048495 L21.5373196,19.9454365 L20.123106,21.35965 L15.4046778,16.6412218 Z" id="path-1"></path>
    </defs>
    <g id="Symbols" stroke="none" stroke-width="1" fill="none" fill-rule="evenodd">
        <g id="icon_search">
            <mask id="mask-2" fill="white">
                <use xlink:href="#path-1"></use>
            </mask>
            <use id="Mask" fill="#98A0A7" xlink:href="#path-1"></use>
        </g>
    </g>
</svg>